<svg version="1.1" id="Layer_1" xmlns="http://www.w3.org/2000/svg" xmlns:xlink="http://www.w3.org/1999/xlink" x="0px" y="0px"
	 width="100%" viewBox="0 0 1080 1080" enable-background="new 0 0 1080 1080" xml:space="preserve">
<path fill="none" opacity="1.000000" stroke="#000000" stroke-linecap="round" stroke-linejoin="round" stroke-width="6.000000"
	d="
M231.000000,557.500000 
	C226.667252,562.272888 227.859253,568.426575 227.081985,574.011414 
	C225.362823,586.364197 224.250214,598.807861 221.459381,610.990723 
	C220.706451,614.277344 220.630280,618.264771 215.999557,618.997253 
	C211.424179,619.720886 207.177338,619.218750 203.488190,616.013611 
	C194.547318,608.245728 190.016037,597.972107 186.444809,587.018005 
	C183.662689,578.484192 181.670624,569.786255 180.037445,560.993042 
	C179.467911,557.926697 178.605927,555.618225 175.020889,554.896240 
	C172.806366,554.450256 172.380615,552.216675 171.916901,550.017517 
	C170.310928,542.401245 168.329224,534.999634 162.051285,529.442078 
	C154.495468,522.753296 145.450806,521.083923 136.002106,521.330872 
	C112.383797,521.948120 91.772186,531.559692 71.970589,543.451050 
	C68.989334,545.241333 65.372795,547.936523 62.119328,544.873291 
	C59.068523,542.000854 61.676968,538.525330 63.018848,535.508362 
	C69.021011,522.013733 78.824883,511.335907 89.048012,501.047699 
	C94.151505,495.911774 99.992439,491.555328 106.013947,487.520813 
	C118.079918,479.436462 130.838348,479.179840 143.992661,484.518097 
	C144.882385,484.879181 145.611298,485.754425 146.510834,485.950195 
	C148.798599,486.448120 151.331360,488.199280 153.421051,486.407898 
	C155.427780,484.687653 155.011597,481.637390 154.381882,479.535400 
	C150.756989,467.435516 144.190567,457.530914 131.988647,452.527679 
	C121.360603,448.169708 111.524460,452.555267 103.152969,457.746674 
	C79.956993,472.131073 62.089470,491.871429 50.068485,516.533386 
	C46.262863,524.340881 43.438412,532.551880 43.459892,541.500122 
	C43.479225,549.557983 47.732651,554.634888 54.514400,557.970703 
	C60.898033,561.110718 66.756439,561.472839 73.107788,556.641724 
	C84.499107,547.976929 96.796997,540.608154 110.514809,536.044495 
	C113.915642,534.913086 117.489258,534.284607 121.002281,533.510315 
	C127.856422,531.999573 131.935272,533.829102 135.495636,540.002502 
	C142.984238,552.987244 143.052719,566.699463 137.327881,579.925476 
	C129.371429,598.307190 117.005745,613.503418 99.971512,624.455688 
	C93.488693,628.623840 86.636009,632.128296 78.499664,631.504395 
	C73.085579,631.089233 68.825104,629.380371 66.914520,623.527893 
	C65.121849,618.036621 62.435024,616.359070 59.000019,617.500061 
	C55.271343,618.738647 54.190514,622.041199 55.485092,627.503540 
	C59.852421,645.931030 80.287811,657.383606 98.530037,651.594666 
	C113.278030,646.914490 126.005646,639.031189 137.460739,628.955383 
	C147.714584,619.936157 156.541733,609.553894 162.892685,597.443726 
	C168.184433,587.353149 171.757858,576.556885 172.542770,565.002930 
	C172.761597,561.781921 172.350052,558.354370 174.500000,555.500000 
"/>
<path fill="none" opacity="1.000000" stroke="#000000" stroke-linecap="round" stroke-linejoin="round" stroke-width="6.000000"
	d="
M1023.750000,441.500000 
	C1024.451660,445.775543 1022.034729,447.729156 1018.539429,449.574677 
	C1005.096130,456.672791 990.802246,461.586243 976.496338,466.489288 
	C960.330200,472.029968 944.195007,477.677551 927.510376,481.544739 
	C926.630371,481.748688 925.900513,482.600586 924.943481,483.259125 
	C925.865845,486.634888 925.582458,490.335663 925.469177,493.999054 
	C924.968567,510.186584 925.897888,526.347168 926.585876,542.496338 
	C927.691162,568.440369 931.264404,594.018799 940.531067,618.488220 
	C943.524109,626.391479 947.224792,633.962585 951.901794,641.064697 
	C952.948853,642.654663 955.444641,644.664612 953.431763,646.939636 
	C951.411133,649.223511 948.763855,649.788086 945.479919,649.095337 
	C935.811218,647.055969 929.387573,640.651489 923.523315,633.480896 
	C911.428894,618.692261 904.699768,601.322266 900.612305,582.974976 
	C896.773193,565.742065 895.227112,548.186707 894.258789,530.513184 
	C893.601440,518.513672 894.238586,506.439758 892.486389,494.502014 
	C892.334473,493.467163 891.990295,492.460571 891.675903,491.202637 
	C881.610779,491.950256 871.941467,494.205200 862.007385,494.661041 
	C848.863342,495.264221 836.287109,493.357178 824.010803,488.969727 
	C818.447144,486.981323 813.031860,484.579834 807.483398,482.545258 
	C805.434143,481.793823 803.692627,480.812866 804.082275,478.513947 
	C804.483521,476.146423 806.719666,476.559692 808.499817,476.495667 
	C817.500183,476.171814 826.561096,476.371613 835.484009,475.359039 
	C845.828491,474.185181 856.207153,473.253632 866.531921,471.713898 
	C875.006104,470.450104 883.552551,469.549438 892.500000,467.984863 
	C892.500000,462.502441 892.500000,457.001221 892.500000,451.500000 
	C892.500000,443.666656 892.386292,435.830994 892.548035,428.001007 
	C892.628662,424.101929 891.144897,420.442169 891.424927,416.494659 
	C891.813599,411.015259 897.174377,406.262115 902.489990,407.541565 
	C915.389954,410.646606 923.588013,419.226990 923.560242,433.000122 
	C923.542725,441.667206 924.979919,450.299683 924.543335,459.002167 
	C924.501526,459.836792 925.066711,460.701874 925.458252,461.877747 
	C937.362854,460.644501 948.840637,457.509308 960.477112,455.375214 
	C973.908875,452.911896 987.165649,449.495361 1000.500610,446.502747 
	C1004.663330,445.568512 1008.820923,444.604797 1013.003784,443.769043 
	C1016.547241,443.061005 1020.120422,442.564453 1023.500000,444.500000 
"/>
<path fill="none" opacity="1.000000" stroke="#000000" stroke-linecap="round" stroke-linejoin="round" stroke-width="6.000000"
	d="
M751.500000,641.000000 
	C755.903015,642.390259 756.334167,646.952515 758.375793,650.081055 
	C764.448425,659.386719 771.438049,667.873596 781.104736,673.313965 
	C787.067383,676.669678 793.908508,680.164062 801.015991,674.988342 
	C801.044312,671.464661 798.212463,669.548889 796.502686,666.998230 
	C787.080200,652.942200 781.359070,637.351379 777.507629,620.998230 
	C774.872803,609.810791 773.704407,598.408997 772.448486,587.005676 
	C770.817200,572.194885 769.571167,557.360474 768.364990,542.510986 
	C767.430725,531.009094 766.311951,519.519104 765.434387,508.005005 
	C764.378357,494.150513 762.988770,480.315948 761.443176,466.506348 
	C760.475403,457.859589 751.629028,450.775452 741.999207,450.530853 
	C738.720642,450.447632 735.341492,449.881500 732.468140,452.464539 
	C729.670288,454.979645 727.966736,457.068878 729.262756,461.568329 
	C730.909729,467.285950 731.022461,473.486267 731.459045,479.502960 
	C732.268677,490.659241 732.442749,501.874512 733.614136,512.987976 
	C734.702820,523.317322 735.113770,533.692749 736.279907,544.024841 
	C737.232544,552.465149 737.752747,561.009094 738.554504,569.494873 
	C739.202515,576.353577 740.342896,583.165405 741.246033,590.000549 
	C741.686096,593.330750 742.305786,596.659241 742.417847,600.002747 
	C742.486755,602.059753 742.871948,603.940247 744.041260,605.468445 
	C746.882690,609.181763 746.507446,613.189819 746.127502,617.511230 
	C745.754028,621.758301 745.730774,625.752869 749.686890,629.574158 
	C752.058411,631.864746 752.678040,637.797546 750.779236,641.383118 
	C748.281738,646.099548 748.041992,651.442993 745.488464,655.993530 
	C742.906982,660.593933 741.960388,665.803589 739.673218,670.582886 
	C735.000244,680.347900 724.756226,684.751587 714.055237,675.932983 
	C708.309631,671.197998 703.889038,665.301941 700.349792,658.579102 
	C697.721741,653.586853 696.169067,647.797363 691.500000,644.000000 
"/>
<path fill="none" opacity="1.000000" stroke="#000000" stroke-linecap="round" stroke-linejoin="round" stroke-width="6.000000"
	d="
M690.500000,638.500000 
	C692.434875,643.371033 688.370422,646.798157 687.454895,650.990173 
	C686.101685,657.185669 684.534790,663.376892 681.430664,668.961426 
	C680.155396,671.255798 678.950745,675.255432 674.969604,671.532532 
	C674.702881,671.283081 673.994873,671.453125 673.500793,671.507080 
	C666.814392,672.237671 664.657349,670.907104 662.510010,664.496643 
	C659.737122,656.219238 658.357910,647.708801 657.296997,639.024780 
	C656.354309,631.308533 656.148682,623.618896 656.645752,616.009521 
	C657.741760,599.231384 660.553894,582.800110 670.468262,568.478027 
	C673.851501,563.590637 677.754333,559.488220 683.501526,557.504517 
	C688.961060,555.620239 691.353394,556.017639 694.424622,560.551086 
	C697.889038,565.665039 700.591797,571.286011 701.428040,577.509644 
	C701.750488,579.908630 702.034729,581.764343 704.999451,581.493835 
	C708.070679,581.213684 710.838745,579.143250 710.303040,576.540527 
	C708.486511,567.715210 706.470703,558.941040 699.101318,552.386108 
	C694.281799,548.099243 688.665955,547.055115 683.003662,547.174011 
	C673.880005,547.365723 664.750122,548.550354 656.004639,551.513672 
	C647.360596,554.442444 641.263062,560.478394 636.513428,568.008484 
	C629.666321,578.864014 626.254944,590.827698 624.363770,603.479614 
	C622.887939,613.352905 622.928223,623.267639 623.752991,632.978516 
	C625.075012,648.545044 628.522034,663.868958 641.049133,674.944397 
	C649.451538,682.373047 659.490601,683.274414 669.989807,680.462036 
	C673.532104,679.513184 676.190247,677.356873 677.000000,673.500000 
"/>
<path fill="none" opacity="1.000000" stroke="#000000" stroke-linecap="round" stroke-linejoin="round" stroke-width="6.000000"
	d="
M556.500000,499.500000 
	C556.878784,497.281830 558.628479,496.034973 559.988708,494.490051 
	C565.670715,488.036316 566.814697,475.732941 562.500061,467.999969 
	C560.133606,463.758606 557.220032,463.001526 553.542419,466.051178 
	C551.391541,467.834869 549.954712,470.300049 548.989136,472.996094 
	C546.377197,480.288330 545.663330,487.827484 546.014587,495.499329 
	C546.171204,498.919464 547.652466,500.865662 551.504517,500.555969 
	C554.321106,500.329529 557.140625,500.343353 560.016724,500.915985 
	C565.466187,502.001007 571.461182,497.519714 574.362976,489.947479 
	C579.315430,477.023804 577.071655,464.603943 568.906311,453.569336 
	C565.193909,448.552277 559.472717,448.202972 553.486816,448.883942 
	C549.199524,449.371613 545.015137,450.168335 541.024048,451.568573 
	C531.462585,454.923126 528.258789,463.421753 525.539856,472.012634 
	C521.353577,485.239838 520.350159,498.764069 522.497192,512.500427 
	C525.270264,530.242920 541.680847,547.365051 563.001953,547.924438 
	C575.628357,548.255798 586.412842,542.823608 591.021057,531.308350 
	C594.066772,523.697510 596.969604,515.212585 596.879822,506.501251 
	C596.871155,505.658630 596.377319,504.797729 597.007385,504.005859 
	C600.551086,499.551849 599.687195,494.082581 600.500000,489.000000 
"/>
<path fill="none" opacity="1.000000" stroke="#000000" stroke-linecap="round" stroke-linejoin="round" stroke-width="6.000000"
	d="
M300.500000,547.000000 
	C304.020782,547.115051 307.522369,546.805054 311.026123,547.917725 
	C313.996674,548.861084 316.761902,547.074768 318.935608,545.415649 
	C324.751343,540.976624 327.567535,534.662781 327.924774,527.496277 
	C328.285706,520.255554 327.369995,513.087708 323.983795,506.508331 
	C317.626221,494.155487 312.578339,494.448090 300.006775,496.296082 
	C288.675232,497.961792 281.513580,504.205658 277.842529,515.448608 
	C273.167816,529.765198 270.865540,544.261780 273.645782,558.972473 
	C278.281799,583.502319 299.898743,597.565063 321.493195,593.959290 
	C330.997589,592.372375 337.672943,586.553467 342.451111,578.471069 
	C343.758972,576.258789 343.607910,573.521606 343.454193,570.525452 
	C348.609802,570.843567 350.536377,574.459045 352.427948,577.544189 
	C357.785156,586.281799 365.471527,589.771851 375.503845,589.053772 
	C379.229523,588.787048 381.726624,587.559998 383.607391,584.057678 
	C386.118103,579.382141 388.279114,574.562500 389.354889,569.469360 
	C390.220337,565.371643 393.783173,564.456543 396.000000,562.000000 
"/>
<path fill="none" opacity="1.000000" stroke="#000000" stroke-linecap="round" stroke-linejoin="round" stroke-width="6.000000"
	d="
M460.000000,499.500000 
	C455.114746,494.478546 456.577209,487.943359 456.087067,481.992828 
	C454.976959,468.515625 454.218475,455.005463 453.575592,441.496399 
	C453.401001,437.827515 451.899536,435.195892 448.969330,433.554779 
	C442.505646,429.934601 435.611511,429.060120 428.509827,431.528259 
	C425.778870,432.477356 424.698486,434.574585 424.981110,437.501831 
	C425.865723,446.663513 426.508911,455.851013 427.533234,464.996277 
	C429.588013,483.342163 431.802979,501.670319 434.019836,519.997620 
	C434.624603,524.997375 435.564056,529.907471 441.500000,531.500000 
"/>
<path fill="none" opacity="1.000000" stroke="#000000" stroke-linecap="round" stroke-linejoin="round" stroke-width="6.000000"
	d="
M232.000000,557.500000 
	C236.060562,561.249756 234.731949,566.423889 235.443527,571.008789 
	C236.774200,579.582642 237.359436,588.314575 240.536270,596.485901 
	C243.907822,605.158020 255.171478,614.940491 265.504303,614.049988 
	C267.924835,613.841431 269.906830,613.356934 271.056458,611.101807 
	C263.804291,596.334534 260.954956,580.761475 260.377167,564.504395 
	C259.914703,551.494324 260.178314,538.499756 260.026917,525.499695 
	C259.896973,514.346802 256.427002,510.538757 244.998474,510.034424 
	C235.731430,509.625488 232.359558,511.941528 228.469238,520.986755 
	C222.134583,535.715332 219.731262,551.380310 216.919540,566.985474 
	C215.875748,572.778687 217.032562,579.323303 212.000000,584.000000 
"/>
<path fill="none" opacity="1.000000" stroke="#000000" stroke-linecap="round" stroke-linejoin="round" stroke-width="6.000000"
	d="
M747.500000,629.000000 
	C742.346252,633.150696 743.364502,639.629395 741.594604,645.031006 
	C740.280884,649.040283 739.576477,653.303955 739.096130,657.510986 
	C738.807251,660.040955 735.875793,659.884888 735.976501,662.101074 
	C732.398926,661.767700 731.398438,659.278503 730.540955,656.984680 
	C725.216553,642.742493 722.178772,627.915466 719.485168,613.002686 
	C718.578979,607.985718 717.748840,602.933411 716.433228,598.017883 
	C714.986511,592.612488 710.032043,590.625671 705.459534,589.699768 
	C699.622803,588.517761 693.570068,589.653015 688.019592,592.045471 
	C682.385010,594.474304 679.786682,599.892395 681.656250,606.455505 
	C682.538513,609.552795 682.555847,612.511230 682.440063,615.497681 
	C681.773071,632.714294 680.472534,649.868469 675.438538,666.481384 
	C674.967407,668.036072 675.170288,669.500427 675.000000,671.000000 
"/>
<path fill="none" opacity="1.000000" stroke="#000000" stroke-linecap="round" stroke-linejoin="round" stroke-width="6.000000"
	d="
M493.500000,519.500000 
	C497.833313,526.000000 501.870605,532.723328 506.567505,538.949097 
	C514.123596,548.964661 521.133728,559.491516 530.533630,567.962708 
	C537.009888,573.799072 544.021790,578.884216 553.000366,580.247498 
	C555.179810,580.578430 557.304016,580.623230 559.517212,580.068787 
	C561.583740,579.551147 564.137085,579.710693 564.869934,582.040894 
	C565.505066,584.060608 564.764954,586.009705 562.563049,587.587952 
	C556.623169,591.845703 549.921204,592.887085 543.001892,592.685364 
	C531.015259,592.336121 521.540283,586.241089 513.021545,578.476379 
	C503.390930,569.698181 496.480347,558.654419 488.466797,548.526306 
	C483.703400,542.505981 479.058167,536.352417 472.567688,531.901306 
	C471.232391,530.985535 469.881653,530.390076 468.483307,530.073792 
	C466.149689,529.546143 465.616394,530.377625 465.475464,532.998657 
	C464.939514,542.968933 468.461517,551.703979 473.512238,559.992554 
	C473.750610,560.383728 474.394562,560.625549 474.463287,561.006653 
	C474.937744,563.636902 478.178680,565.966003 476.810028,568.392883 
	C475.296478,571.076660 471.708099,570.152405 469.004425,569.942871 
	C460.818268,569.308472 454.990967,564.663513 449.940948,558.548767 
	C447.524536,555.622925 445.204041,552.285278 441.000000,551.500000 
"/>
<path fill="none" opacity="1.000000" stroke="#000000" stroke-linecap="round" stroke-linejoin="round" stroke-width="6.000000"
	d="
M630.000000,468.500000 
	C633.292969,474.796997 638.509949,477.114288 645.505005,476.563385 
	C652.090576,476.044678 655.939880,473.710510 657.426758,467.482513 
	C659.624390,458.277557 658.772278,449.014923 656.161377,440.025757 
	C654.674805,434.907715 649.933289,432.066986 644.500000,432.001984 
	C643.333435,431.988037 642.164001,431.948120 641.000427,432.008179 
	C631.377563,432.504639 629.417236,434.151428 625.967712,443.488068 
	C622.135193,453.861450 620.256470,464.662842 618.530029,475.504791 
	C617.997437,478.849274 617.567688,481.980286 615.671936,485.104340 
	C613.492188,488.696198 615.458862,492.406616 618.000000,495.500000 
"/>
<path fill="none" opacity="1.000000" stroke="#000000" stroke-linecap="round" stroke-linejoin="round" stroke-width="6.000000"
	d="
M614.500000,486.000000 
	C610.876099,482.914520 611.227295,478.598572 611.019226,474.499023 
	C610.714966,468.504578 611.505310,462.478119 610.502197,456.499634 
	C608.670166,445.580597 600.654114,442.345703 590.505737,444.034393 
	C587.272644,444.572418 586.986206,447.530365 586.536133,450.006561 
	C585.079529,458.020782 586.240723,466.039429 587.090759,473.990295 
	C587.899414,481.553711 589.048279,489.093658 590.899719,496.524994 
	C591.769348,500.015259 593.124268,502.631104 596.500000,504.000000 
"/>
<path fill="none" opacity="1.000000" stroke="#000000" stroke-linecap="round" stroke-linejoin="round" stroke-width="6.000000"
	d="
M400.000000,493.000000 
	C387.721039,491.426544 381.067902,498.747864 376.590393,508.541321 
	C371.402466,519.888489 369.638245,531.994080 369.923920,544.501709 
	C370.156616,554.689819 370.694702,564.708008 373.881042,574.538574 
	C375.525146,579.610962 378.106384,582.655579 383.500000,583.000000 
"/>
<path fill="none" opacity="1.000000" stroke="#000000" stroke-linecap="round" stroke-linejoin="round" stroke-width="6.000000"
	d="
M406.000000,518.250000 
	C406.054382,515.301453 406.177979,512.428406 406.875610,509.470673 
	C408.055725,504.466980 404.713501,500.362396 402.905090,496.039703 
	C402.119293,494.161407 400.584137,492.661316 399.863464,490.546539 
	C399.116272,488.353790 397.309052,486.649231 394.501923,486.470062 
	C382.337585,485.693634 370.333282,486.318085 360.590240,494.606079 
	C353.057007,501.014160 349.050262,509.869232 347.029480,519.506165 
	C345.856750,525.098999 343.584045,530.607483 345.888824,536.543152 
	C346.399475,537.858398 347.335205,538.498779 348.000000,539.500000 
"/>
<path fill="none" opacity="1.000000" stroke="#000000" stroke-linecap="round" stroke-linejoin="round" stroke-width="6.000000"
	d="
M619.000000,498.500000 
	C623.142517,501.613953 621.848694,506.090546 621.391113,509.987213 
	C620.335999,518.973816 622.561096,527.121094 626.500000,535.000000 
	C627.166626,536.333374 627.847900,537.659668 628.497314,539.001282 
	C630.842773,543.846436 629.309204,546.584656 623.999695,546.995667 
	C619.022339,547.380859 614.663208,545.803772 611.019775,542.478333 
	C606.994263,538.804199 603.962280,534.324402 601.536133,529.481873 
	C599.911133,526.238586 597.884705,523.518738 594.500000,522.000000 
"/>
<path fill="none" opacity="1.000000" stroke="#000000" stroke-linecap="round" stroke-linejoin="round" stroke-width="6.000000"
	d="
M488.500000,518.500000 
	C491.789490,519.659729 493.952393,518.150757 496.616669,516.155823 
	C500.704712,513.094910 504.231384,509.647888 506.950195,505.467590 
	C512.568970,496.828522 512.049561,487.324219 509.350311,478.043549 
	C507.771912,472.616791 503.385834,469.530060 497.517609,468.407898 
	C491.789948,467.312592 486.486298,469.225159 481.013306,469.863922 
	C479.921204,469.991364 478.512054,471.396606 478.078339,472.529999 
	C474.994598,480.588684 468.859344,487.087646 466.442474,495.483429 
	C466.173706,496.417053 466.094574,497.438904 464.559692,498.132172 
	C459.024170,500.632446 458.100433,503.053101 459.000000,510.000000 
"/>
<path fill="none" opacity="1.000000" stroke="#000000" stroke-linecap="round" stroke-linejoin="round" stroke-width="6.000000"
	d="
M307.500000,546.500000 
	C307.787842,544.825745 308.862885,543.656738 309.993866,542.494019 
	C317.572906,534.702515 317.150726,525.532104 314.490479,516.002625 
	C313.826263,513.623291 313.037964,511.020630 310.001160,511.070892 
	C306.817749,511.123535 304.196838,512.719177 302.510315,515.506226 
	C297.659088,523.522949 297.084015,532.482361 297.071106,541.500122 
	C297.068268,543.476257 298.533386,545.113281 300.205811,546.694397 
	C297.832886,549.904724 298.259125,553.420410 299.493469,557.002258 
	C302.246857,564.992371 306.632202,571.914917 313.010712,577.487732 
	C319.176453,582.874695 326.400757,582.702454 333.044159,577.557007 
	C336.099335,575.190796 338.269806,571.171875 343.000000,571.500000 
"/>
<path fill="none" opacity="1.000000" stroke="#000000" stroke-linecap="round" stroke-linejoin="round" stroke-width="6.000000"
	d="
M390.000000,566.500000 
	C387.790222,563.658203 387.680786,560.281250 388.055145,557.006287 
	C389.063446,548.186096 389.858398,539.411438 389.081757,530.492859 
	C388.429749,523.005615 390.980255,520.289856 398.499268,518.995789 
	C404.709045,517.927063 411.071442,517.537964 414.819763,523.611206 
	C416.688385,526.638977 416.759247,530.815125 417.482605,534.503418 
	C419.632812,545.466309 421.445923,556.503845 425.455566,567.016968 
	C425.913330,568.217224 426.117981,569.424133 426.959167,570.531067 
	C429.591614,573.994934 433.487152,573.990723 434.898743,569.964478 
	C437.398651,562.834106 439.176636,555.492065 440.686859,548.037842 
	C442.169922,540.717590 440.844788,533.243530 443.690186,525.880249 
	C446.039917,519.799561 445.666687,512.666687 446.500031,506.000000 
"/>
<path fill="none" opacity="1.000000" stroke="#000000" stroke-linecap="round" stroke-linejoin="round" stroke-width="6.000000"
	d="
M548.500000,501.000000 
	C547.064697,503.415436 546.999756,505.734314 547.912048,508.528717 
	C550.873901,517.601135 555.000427,525.720581 562.968994,531.542480 
	C569.135132,536.047424 574.729248,535.795837 581.532959,531.047241 
	C584.785767,528.776917 586.743469,524.477112 591.500000,524.500000 
"/>
<path fill="none" opacity="1.000000" stroke="#000000" stroke-linecap="round" stroke-linejoin="round" stroke-width="6.000000"
	d="
M212.500000,594.500000 
	C212.373047,589.730469 211.898315,585.454529 209.391617,580.789551 
	C206.665833,575.716919 206.987274,569.002075 206.002609,562.999573 
	C203.883621,550.082397 200.017609,547.247375 187.010452,549.558838 
	C183.184799,550.238647 178.718826,550.231201 177.000000,555.000000 
"/>
<path fill="none" opacity="1.000000" stroke="#000000" stroke-linecap="round" stroke-linejoin="round" stroke-width="6.000000"
	d="
M463.500000,522.500000 
	C464.882782,519.867737 467.117981,518.849243 469.945740,517.846924 
	C477.219208,515.268982 481.224396,508.997589 484.416229,502.459106 
	C487.295258,496.561371 488.721252,490.182892 488.526581,483.499237 
	C488.338348,477.037506 487.037292,475.824188 480.498596,476.486084 
	C479.508728,476.586304 478.500000,476.500000 477.500000,476.500000 
"/>
<path fill="none" opacity="1.000000" stroke="#000000" stroke-linecap="round" stroke-linejoin="round" stroke-width="6.000000"
	d="
M747.000000,607.500000 
	C751.406128,605.300476 749.309814,600.743530 750.245483,597.428162 
	C752.105591,590.837585 752.635254,583.848877 753.423340,576.991211 
	C753.683289,574.729248 754.531128,572.796814 756.511108,572.644836 
	C759.136597,572.443298 759.645203,574.845703 759.473633,576.997925 
	C758.875305,584.503357 758.417847,592.033264 757.430420,599.490784 
	C756.409790,607.198853 754.674622,614.811218 753.601624,622.514160 
	C753.299072,624.686035 752.702209,626.267761 751.000000,627.500000 
"/>
<path fill="none" opacity="1.000000" stroke="#000000" stroke-linecap="round" stroke-linejoin="round" stroke-width="6.000000"
	d="
M395.500000,555.500000 
	C394.837494,561.779602 400.305389,565.094666 402.561371,569.971619 
	C405.508759,576.343323 409.690399,581.865051 415.499298,586.000977 
	C418.986328,588.483826 425.754028,588.739075 429.000061,586.500061 
	C433.443268,583.435303 435.541077,577.561279 434.000000,572.500000 
"/>
<path fill="none" opacity="1.000000" stroke="#000000" stroke-linecap="round" stroke-linejoin="round" stroke-width="6.000000"
	d="
M631.500000,454.500000 
	C631.166626,458.166656 630.796143,461.830475 630.512085,465.500946 
	C630.295898,468.294464 627.289551,469.451538 626.767395,472.003571 
	C625.951721,475.990112 624.981995,479.972412 624.566711,484.006866 
	C624.027039,489.249146 622.243286,493.774811 618.500000,497.500000 
"/>
<path fill="none" opacity="1.000000" stroke="#000000" stroke-linecap="round" stroke-linejoin="round" stroke-width="11.000000"
	d="
M348.500000,540.500000 
	C348.204590,550.474060 348.236816,560.492554 344.500000,570.000000 
"/>
<path fill="none" opacity="1.000000" stroke="#000000" stroke-linecap="round" stroke-linejoin="round" stroke-width="8.000000"
	d="
M233.000000,530.000000 
	C232.500000,538.833313 232.000000,547.666687 231.500000,556.500000 
"/>
<path fill="none" opacity="1.000000" stroke="#000000" stroke-linecap="round" stroke-linejoin="round" stroke-width="7.000000"
	d="
M465.500000,498.500000 
	C467.405457,501.850281 467.423157,505.377808 466.502167,509.000549 
	C465.727020,512.049622 465.539520,515.071899 467.000000,518.000000 
"/>
<path fill="none" opacity="1.000000" stroke="#000000" stroke-linecap="round" stroke-linejoin="round" stroke-width="6.000000"
	d="
M836.500000,533.500000 
	C832.093994,536.049316 832.900452,540.568726 832.562683,544.505371 
	C832.049805,550.481812 834.088867,556.958984 831.755371,562.395020 
	C828.520325,569.931519 831.076294,576.864563 831.839539,583.990417 
	C832.700867,592.032043 834.169312,600.013672 835.524109,607.995911 
	C836.721436,615.049988 837.910217,622.086426 841.383728,628.562378 
	C842.400391,630.457581 843.482544,632.139526 845.028076,633.467285 
	C847.944458,635.972717 851.945068,635.341309 853.968567,631.981079 
	C857.097168,626.785767 857.661499,620.862305 858.537781,615.005676 
	C860.261353,603.486450 859.557129,591.967285 858.414490,580.508545 
	C857.072876,567.054993 855.253723,553.639526 848.528381,541.484314 
	C845.960815,536.843750 842.861572,533.251038 837.000000,533.500000 
"/>
<path fill="none" opacity="1.000000" stroke="#000000" stroke-linecap="round" stroke-linejoin="round" stroke-width="6.000000"
	d="
M835.500000,518.500000 
	C830.194824,520.575134 824.420227,520.898071 819.386597,524.333923 
	C814.013306,528.001526 810.046326,532.041992 808.364868,538.464600 
	C807.807800,540.592590 806.580383,542.582947 804.122498,544.187622 
	C796.654175,549.063354 794.309326,557.314087 793.647827,565.511902 
	C792.190002,583.578003 794.435059,601.338257 800.521057,618.492554 
	C803.990723,628.272217 808.667542,637.298523 816.986450,644.016785 
	C829.497925,654.121155 845.983276,651.558411 856.457520,641.953674 
	C864.602234,634.485046 868.136902,624.515991 870.528931,614.006592 
	C873.440247,601.215637 872.884949,588.320190 871.390991,575.512695 
	C869.760437,561.534058 867.189758,547.666321 860.481506,535.009827 
	C856.570679,527.631226 851.877625,521.091064 843.019287,518.921204 
	C840.625610,518.334839 838.324951,518.783875 836.000000,518.500000 
"/>
</svg>