<?xml version="1.0" encoding="UTF-8"?>
<svg width="24px" height="24px" viewBox="0 0 24 24" version="1.1" xmlns="http://www.w3.org/2000/svg">
    <g stroke="none" stroke-width="1" fill="none" fill-rule="evenodd">
        <path d="M14.4375,0 C14.4375,0 9.03729167,0.285416667 6.89583333,4.31875 C6.89583333,4.31875 6.44791667,5.16041667 6.44791667,6.28333333 C6.44791667,7.40625 6.75520833,8.37291667 7.215625,9.24583333 C7.67604167,10.1197917 8.37916667,10.8229167 9.32291667,11.3708333 C10.2666667,11.9197917 11.4447917,12.3135417 12.878125,12.5666667 C14.3114583,12.8197917 15.9989583,12.9197917 17.9416667,12.8666667 C19.884375,12.8135417 22.0822917,12.6072917 24.5364583,12.2479167 L24.5364583,9.87291667 C24.5364583,9.87291667 22.7447917,10.1729167 21.3114583,10.3260417 C19.878125,10.478125 18.7989583,10.553125 18.075,10.553125 C17.3510417,10.553125 16.8489583,10.5010417 16.571875,10.396875 C16.2947917,10.2927083 16.121875,10.1729167 16.053125,10.0364583 C15.984375,9.9 15.9479167,9.74895833 15.9479167,9.58333333 C15.9479167,9.41770833 15.9479167,9.234375 15.9479167,9.234375 L24.5364583,9.234375 L24.5364583,6.95520833 L15.9479167,6.95520833 L15.9479167,5.95520833 L24.5364583,5.95520833 L24.5364583,3.67604167 L15.9479167,3.67604167 L15.9479167,0 L14.4375,0 Z" fill="#111111"></path>
    </g>
</svg> 