<?xml version="1.0" encoding="UTF-8"?>
<svg width="60" height="24" viewBox="0 0 60 24" fill="none" xmlns="http://www.w3.org/2000/svg">
  <path fill="black" d="M30.0024 0.000152588C29.2911 0.000152588 28.4645 0.0855591 27.5277 0.255902C23.8108 0.895069 20.8775 2.35799 18.7327 4.64751C16.5861 6.93799 15.5137 9.58698 15.5137 12.5945C15.5137 15.6028 16.5861 18.2518 18.7327 20.5414C20.8775 22.8319 23.8108 24.2948 27.5277 24.934C28.4645 25.1043 29.2911 25.1897 30.0024 25.1897C30.7137 25.1897 31.5403 25.1043 32.4771 24.934C36.194 24.2948 39.1273 22.8319 41.2721 20.5414C43.4187 18.2518 44.4911 15.6028 44.4911 12.5945C44.4911 9.58698 43.4187 6.93799 41.2721 4.64751C39.1273 2.35799 36.194 0.895069 32.4771 0.255902C31.5403 0.0855591 30.7137 0.000152588 30.0024 0.000152588ZM59.9932 7.24466L44.4911 12.5945L59.9932 17.9443V7.24466Z"/>
</svg> 