<svg xmlns="http://www.w3.org/2000/svg"  viewBox="0 0 100 100" width="500px" height="500px"><path fill="#c7ede6" d="M87.215,56.71C88.35,54.555,89,52.105,89,49.5c0-6.621-4.159-12.257-10.001-14.478	C78.999,35.015,79,35.008,79,35c0-11.598-9.402-21-21-21c-9.784,0-17.981,6.701-20.313,15.757C36.211,29.272,34.638,29,33,29	c-7.692,0-14.023,5.793-14.89,13.252C12.906,43.353,9,47.969,9,53.5C9,59.851,14.149,65,20.5,65c0.177,0,0.352-0.012,0.526-0.022	C21.022,65.153,21,65.324,21,65.5C21,76.822,30.178,86,41.5,86c6.437,0,12.175-2.972,15.934-7.614C59.612,80.611,62.64,82,66,82	c4.65,0,8.674-2.65,10.666-6.518C77.718,75.817,78.837,76,80,76c6.075,0,11-4.925,11-11C91,61.689,89.53,58.727,87.215,56.71z"/><path fill="#fdfcef" d="M53.629,45.5c0,0,3.64,0,6.125,0s4.5-2.015,4.5-4.5c0-2.333-1.782-4.229-4.055-4.455 c0.022-0.181,0.055-0.358,0.055-0.545c0-2.485-2.015-4.5-4.5-4.5c-1.438,0-2.703,0.686-3.527,1.736 c-0.14-2.636-2.302-4.736-4.973-4.736c-2.761,0-5,2.239-5,5c0,0.446,0.077,0.87,0.187,1.282c-0.642-0.777-1.6-1.282-2.687-1.282 c-1.781,0-3.234,1.335-3.455,3.055c-0.181-0.022-0.358-0.055-0.545-0.055c-2.485,0-4.5,2.015-4.5,4.5s2.015,4.5,4.5,4.5 s9.5,0,9.5,0h5.375V46h3V45.5z"/><path fill="#472b29" d="M47.254,28c-3.033,0-5.5,2.467-5.5,5.5c0,0.016,0,0.031,0,0.047c-0.602-0.354-1.29-0.547-2-0.547 c-1.831,0-3.411,1.261-3.858,3.005C35.849,36.002,35.802,36,35.754,36c-2.757,0-5,2.243-5,5s2.243,5,5,5h14.875 c0.276,0,0.5-0.224,0.5-0.5s-0.224-0.5-0.5-0.5H35.754c-2.206,0-4-1.794-4-4s1.794-4,4-4c0.117,0,0.23,0.017,0.343,0.032 l0.141,0.019c0.021,0.003,0.041,0.004,0.062,0.004c0.246,0,0.462-0.185,0.495-0.437C36.987,35.125,38.258,34,39.754,34 c0.885,0,1.723,0.401,2.301,1.1c0.098,0.118,0.241,0.182,0.386,0.182c0.078,0,0.156-0.018,0.228-0.056 c0.209-0.107,0.314-0.346,0.254-0.573c-0.116-0.436-0.17-0.802-0.17-1.153c0-2.481,2.019-4.5,4.5-4.5 c2.381,0,4.347,1.872,4.474,4.263c0.011,0.208,0.15,0.387,0.349,0.45c0.05,0.016,0.101,0.024,0.152,0.024 c0.15,0,0.296-0.069,0.392-0.192C53.392,32.563,54.533,32,55.754,32c2.206,0,4,1.794,4,4c0,0.117-0.017,0.23-0.032,0.343 l-0.019,0.141c-0.016,0.134,0.022,0.268,0.106,0.373c0.084,0.105,0.207,0.172,0.34,0.185c2.055,0.205,3.604,1.906,3.604,3.958 c0,2.206-1.794,4-4,4h-6.125c-0.276,0-0.5,0.224-0.5,0.5s0.224,0.5,0.5,0.5h6.125c2.757,0,5-2.243,5-5 c0-2.397-1.689-4.413-4.003-4.877c0.002-0.041,0.003-0.082,0.003-0.123c0-2.757-2.243-5-5-5c-1.176,0-2.293,0.416-3.183,1.164 C51.973,29.76,49.809,28,47.254,28L47.254,28z"/><path fill="#472b29" d="M45.754,35c-1.403,0-2.609,0.999-2.913,2.341C42.474,37.119,42.055,37,41.629,37 c-1.202,0-2.198,0.897-2.353,2.068C39.073,39.022,38.88,39,38.692,39c-1.529,0-2.811,1.2-2.918,2.732 C35.764,41.87,35.868,41.99,36.006,42c0.006,0,0.012,0,0.018,0c0.13,0,0.24-0.101,0.249-0.232c0.089-1.271,1.151-2.268,2.419-2.268 c0.229,0,0.47,0.042,0.738,0.127c0.022,0.007,0.045,0.01,0.067,0.01c0.055,0,0.11-0.02,0.156-0.054 c0.064-0.047,0.102-0.129,0.102-0.209c0-1.034,0.841-1.875,1.875-1.875c0.447,0,0.885,0.168,1.231,0.473 c0.047,0.041,0.106,0.063,0.165,0.063c0.032,0,0.063-0.006,0.093-0.019c0.088-0.035,0.148-0.117,0.155-0.212 c0.102-1.292,1.191-2.305,2.479-2.305c0.208,0,0.425,0.034,0.682,0.107c0.023,0.007,0.047,0.01,0.07,0.01 c0.109,0,0.207-0.073,0.239-0.182c0.038-0.133-0.039-0.271-0.172-0.309C46.271,35.04,46.01,35,45.754,35L45.754,35z"/><path fill="#472b29" d="M59.637,36.5c-1.326,0-2.508,0.897-2.874,2.182c-0.038,0.133,0.039,0.271,0.172,0.309 c0.023,0.007,0.046,0.01,0.068,0.01c0.109,0,0.209-0.072,0.24-0.182C57.55,37.748,58.533,37,59.637,37 c0.117,0,0.23,0.014,0.342,0.029c0.012,0.002,0.023,0.003,0.035,0.003c0.121,0,0.229-0.092,0.246-0.217 c0.019-0.137-0.077-0.263-0.214-0.281C59.912,36.516,59.777,36.5,59.637,36.5L59.637,36.5z"/><path fill="#fff" d="M34.405,78H24.5c-0.276,0-0.5-0.224-0.5-0.5s0.224-0.5,0.5-0.5h9.905c0.276,0,0.5,0.224,0.5,0.5 S34.682,78,34.405,78z"/><path fill="#fff" d="M37.5,78h-1c-0.276,0-0.5-0.224-0.5-0.5s0.224-0.5,0.5-0.5h1c0.276,0,0.5,0.224,0.5,0.5 S37.777,78,37.5,78z"/><path fill="#fff" d="M42.491,80H33.5c-0.276,0-0.5-0.224-0.5-0.5s0.224-0.5,0.5-0.5h8.991c0.276,0,0.5,0.224,0.5,0.5 S42.767,80,42.491,80z"/><path fill="#fff" d="M31.5,80h-1c-0.276,0-0.5-0.224-0.5-0.5s0.224-0.5,0.5-0.5h1c0.276,0,0.5,0.224,0.5,0.5 S31.777,80,31.5,80z"/><path fill="#fff" d="M28.5,80h-2c-0.276,0-0.5-0.224-0.5-0.5s0.224-0.5,0.5-0.5h2c0.276,0,0.5,0.224,0.5,0.5 S28.777,80,28.5,80z"/><path fill="#fff" d="M34.5,82h-2c-0.276,0-0.5-0.224-0.5-0.5s0.224-0.5,0.5-0.5h2c0.276,0,0.5,0.224,0.5,0.5 S34.776,82,34.5,82z"/><path fill="#fff" d="M37.5,73c-0.177,0-0.823,0-1,0c-0.276,0-0.5,0.224-0.5,0.5c0,0.276,0.224,0.5,0.5,0.5 c0.177,0,0.823,0,1,0c0.276,0,0.5-0.224,0.5-0.5C38,73.224,37.776,73,37.5,73z"/><path fill="#fff" d="M37.5,75c-0.177,0-4.823,0-5,0c-0.276,0-0.5,0.224-0.5,0.5c0,0.276,0.224,0.5,0.5,0.5 c0.177,0,4.823,0,5,0c0.276,0,0.5-0.224,0.5-0.5C38,75.224,37.776,75,37.5,75z"/><path fill="#fff" d="M42.5,77c-0.177,0-2.823,0-3,0c-0.276,0-0.5,0.224-0.5,0.5c0,0.276,0.224,0.5,0.5,0.5 c0.177,0,2.823,0,3,0c0.276,0,0.5-0.224,0.5-0.5C43,77.224,42.776,77,42.5,77z"/><g><path fill="#fff" d="M73.5,28h-10c-0.276,0-0.5-0.224-0.5-0.5s0.224-0.5,0.5-0.5h10c0.276,0,0.5,0.224,0.5,0.5 S73.776,28,73.5,28z"/><path fill="#fff" d="M77.5,28h-2c-0.276,0-0.5-0.224-0.5-0.5s0.224-0.5,0.5-0.5h2c0.276,0,0.5,0.224,0.5,0.5 S77.776,28,77.5,28z"/><path fill="#fff" d="M82.5,30h-10c-0.276,0-0.5-0.224-0.5-0.5s0.224-0.5,0.5-0.5h10c0.276,0,0.5,0.224,0.5,0.5 S82.777,30,82.5,30z"/><path fill="#fff" d="M70.5,30h-1c-0.276,0-0.5-0.224-0.5-0.5s0.224-0.5,0.5-0.5h1c0.276,0,0.5,0.224,0.5,0.5 S70.776,30,70.5,30z"/><path fill="#fff" d="M67.375,30H65.5c-0.276,0-0.5-0.224-0.5-0.5s0.224-0.5,0.5-0.5h1.875c0.276,0,0.5,0.224,0.5,0.5 S67.651,30,67.375,30z"/><path fill="#fff" d="M76.5,26h-5c-0.276,0-0.5-0.224-0.5-0.5s0.224-0.5,0.5-0.5h5c0.276,0,0.5,0.224,0.5,0.5 S76.777,26,76.5,26z"/><path fill="#fff" d="M73.5,32h-2c-0.276,0-0.5-0.224-0.5-0.5s0.224-0.5,0.5-0.5h2c0.276,0,0.5,0.224,0.5,0.5 S73.776,32,73.5,32z"/></g><g><path fill="#fdfcef" d="M79.5,77c0,0,1.567,0,3.5,0s3.5-1.567,3.5-3.5c0-1.781-1.335-3.234-3.055-3.455 c0.028-0.179,0.055-0.358,0.055-0.545c0-1.933-1.567-3.5-3.5-3.5c-1.032,0-1.95,0.455-2.59,1.165C77.025,65.357,75.422,64,73.5,64 c-2.209,0-4,1.791-4,4c0,0.191,0.03,0.374,0.056,0.558C69.128,68.214,68.592,68,68,68c-1.228,0-2.245,0.887-2.455,2.055 C65.366,70.027,65.187,70,65,70c-1.933,0-3.5,1.567-3.5,3.5S63.067,77,65,77s7.5,0,7.5,0v0.5h7V77z"/><path fill="#472b29" d="M81.25,72.5c-0.138,0-0.25-0.112-0.25-0.25c0-1.223,0.995-2.218,2.218-2.218 c0.034,0.009,0.737-0.001,1.244,0.136c0.133,0.036,0.212,0.173,0.176,0.306c-0.036,0.134-0.173,0.213-0.306,0.176 c-0.444-0.12-1.1-0.12-1.113-0.118c-0.948,0-1.719,0.771-1.719,1.718C81.5,72.388,81.388,72.5,81.25,72.5z"/><circle cx="74.5" cy="77" r=".5" fill="#472b29"/><path fill="#472b29" d="M83,77.5h-3.5c-0.276,0-0.5-0.224-0.5-0.5s0.224-0.5,0.5-0.5H83c1.654,0,3-1.346,3-3 c0-1.496-1.125-2.768-2.618-2.959c-0.134-0.018-0.255-0.088-0.336-0.196s-0.115-0.244-0.094-0.377C82.975,69.814,83,69.66,83,69.5 c0-1.654-1.346-3-3-3c-0.85,0-1.638,0.355-2.219,1c-0.125,0.139-0.321,0.198-0.5,0.148c-0.182-0.049-0.321-0.195-0.36-0.379 C76.58,65.665,75.141,64.5,73.5,64.5c-1.93,0-3.5,1.57-3.5,3.5c0,0.143,0.021,0.28,0.041,0.418c0.029,0.203-0.063,0.438-0.242,0.54 c-0.179,0.102-0.396,0.118-0.556-0.01C68.878,68.655,68.449,68.5,68,68.5c-0.966,0-1.792,0.691-1.963,1.644 c-0.048,0.267-0.296,0.446-0.569,0.405C65.314,70.525,65.16,70.5,65,70.5c-1.654,0-3,1.346-3,3s1.346,3,3,3h7.5 c0.276,0,0.5,0.224,0.5,0.5s-0.224,0.5-0.5,0.5H65c-2.206,0-4-1.794-4-4s1.794-4,4-4c0.059,0,0.116,0.002,0.174,0.006 C65.588,68.32,66.711,67.5,68,67.5c0.349,0,0.689,0.061,1.011,0.18c0.165-2.333,2.115-4.18,4.489-4.18 c1.831,0,3.466,1.127,4.153,2.774C78.333,65.776,79.155,65.5,80,65.5c2.206,0,4,1.794,4,4c0,0.048-0.001,0.095-0.004,0.142 C85.739,70.09,87,71.669,87,73.5C87,75.706,85.206,77.5,83,77.5z"/><path fill="#472b29" d="M77.5,76.5c-0.159,0-0.841,0-1,0c-0.276,0-0.5,0.224-0.5,0.5c0,0.276,0.224,0.5,0.5,0.5 c0.159,0,0.841,0,1,0c0.276,0,0.5-0.224,0.5-0.5C78,76.724,77.776,76.5,77.5,76.5z"/></g><path fill="#472b29" d="M65.578,59.324c-0.194,0-0.379-0.114-0.46-0.305c-0.108-0.254,0.011-0.548,0.265-0.656l10.739-4.557	c0.255-0.106,0.547,0.01,0.656,0.265c0.108,0.254-0.011,0.548-0.265,0.656l-10.739,4.557C65.709,59.312,65.644,59.324,65.578,59.324	z"/><path fill="#472b29" d="M78.548,53.818c-0.194,0-0.379-0.114-0.46-0.305c-0.108-0.254,0.011-0.547,0.265-0.656l1.925-0.817	c0.251-0.106,0.548,0.011,0.656,0.265c0.108,0.254-0.011,0.547-0.265,0.656l-1.925,0.817C78.68,53.806,78.613,53.818,78.548,53.818z"/><path fill="#f45834" d="M26.848,70.024c-6.082,0-8.348-4.305-8.348-7.018c0-5.002,4.18-10.41,8.098-15.086l0.831,0.545	c-1.121,2.242-1.408,3.377-1.279,5.059c0.001,4.792,3.418,5.79,6.285,5.79c0.879,0,1.773-0.128,2.656-0.38	c41.467-11.011,46.666-12.34,47.373-12.501l-0.002-0.007c0.135-0.034,0.253-0.05,0.361-0.05c0.385,0,0.589,0.224,0.653,0.433	c0.056,0.186,0.068,0.552-0.483,0.918C82.476,47.955,39.364,66.28,35.414,67.86l-0.328,0.127	C32.76,68.895,29.865,70.024,26.848,70.024z"/><path fill="#472b29" d="M82.823,46.876c0.279,0,0.219,0.217-0.107,0.434c0,0-43.497,18.489-47.487,20.086	c-2.394,0.931-5.321,2.128-8.38,2.128c-5.587,0-7.848-3.858-7.848-6.518c0-4.656,3.858-9.843,7.981-14.765	c-1.197,2.394-1.463,3.591-1.33,5.321c0,4.257,2.66,6.252,6.784,6.252c0.931,0,1.862-0.133,2.793-0.399	c0,0,47.088-12.504,47.354-12.504C82.68,46.887,82.76,46.876,82.823,46.876 M82.823,45.476	C82.823,45.476,82.823,45.476,82.823,45.476c-0.182,0-0.372,0.025-0.58,0.077l0.004,0.016c-1.281,0.29-7.989,2.033-47.378,12.493	c-0.827,0.236-1.637,0.352-2.434,0.352c-3.623,0-5.384-1.587-5.384-4.852c0-0.036-0.001-0.072-0.004-0.107	c-0.104-1.353,0.038-2.29,1.187-4.587c0.318-0.635,0.109-1.407-0.484-1.797c-0.236-0.155-0.502-0.229-0.767-0.229	c-0.402,0-0.799,0.173-1.074,0.501c-4.02,4.798-8.308,10.36-8.308,15.664c0,3.061,2.511,7.918,9.248,7.918	c3.186,0,6.168-1.163,8.564-2.097l0.323-0.126c3.971-1.589,45.751-19.347,47.528-20.102c0.08-0.034,0.157-0.075,0.229-0.124	c1.102-0.735,0.925-1.661,0.844-1.928C84.139,45.896,83.545,45.476,82.823,45.476L82.823,45.476z"/><path fill="#472b29" d="M26.848,68.024c-4.625,0-6.348-3.078-6.348-5.018c0-0.276,0.224-0.5,0.5-0.5s0.5,0.224,0.5,0.5	c0,1.554,1.452,4.018,5.348,4.018c0.2,0,0.4-0.006,0.599-0.019c0.273-0.01,0.513,0.193,0.529,0.469	c0.017,0.276-0.193,0.513-0.469,0.529C27.288,68.017,27.068,68.024,26.848,68.024z"/><path fill="#472b29" d="M29.531,67.702c-0.229,0-0.435-0.158-0.487-0.391c-0.061-0.27,0.109-0.537,0.378-0.597	c0.6-0.135,1.235-0.314,1.941-0.548c0.262-0.085,0.545,0.055,0.632,0.317c0.087,0.262-0.055,0.545-0.317,0.632	c-0.738,0.245-1.405,0.433-2.037,0.574C29.604,67.698,29.567,67.702,29.531,67.702z"/><path fill="#472b29" d="M33.359,66.478c-0.2,0-0.389-0.121-0.466-0.319c-0.1-0.257,0.027-0.547,0.285-0.647l1.126-0.438	c1.909-0.764,9.283-3.914,9.357-3.945c0.252-0.108,0.547,0.009,0.656,0.264c0.108,0.254-0.01,0.547-0.264,0.656	c-0.074,0.032-7.458,3.186-9.383,3.956l-1.131,0.44C33.48,66.467,33.419,66.478,33.359,66.478z"/></svg>